<svg xmlns="http://www.w3.org/2000/svg" xmlns:xlink="http://www.w3.org/1999/xlink" version="1.1"
     x="0px" y="0px" viewBox="0 0 128 128" enable-background="new 0 0 128 128" xml:space="preserve"><path stroke="#F3F4F9" fill="#F3F4F9"
                                    d="M122.9,9H4.9C2.2,9,0,10.7,0,13.5v76C0,92.3,2.2,95,4.9,95H47v17l-8.6,5.7c-0.4,0.2-0.5,1-0.4,1.4c0.1,0.4,0.5,1,0.9,1h50  c0.4,0,0.8-0.5,1-1c0.1-0.4,0-1-0.4-1.2L81,112V95h41.9c2.8,0,5.1-2.7,5.1-5.5v-76C128,10.7,125.7,9,122.9,9z M68,100.5  c0,2.2-1.8,4-4,4c-2.2,0-4-1.8-4-4V95h8V100.5z M121,88H7V16h114V88z"/>
                   </svg>