<svg xmlns="http://www.w3.org/2000/svg" xmlns:xlink="http://www.w3.org/1999/xlink" version="1.1" x="0px" y="0px"
     viewBox="0 0 100 100" stroke="#F3F4F9" fill="#F3F4F9" enable-background="new 0 0 100 100" xml:space="preserve"><g><g><path d="M14,38c-1.104,0-2-0.896-2-2V14c0-1.104,0.896-2,2-2h22c1.104,0,2,0.896,2,2s-0.896,2-2,2H16v20    C16,37.104,15.104,38,14,38z"/></g><g><path d="M36,88H14c-1.104,0-2-0.896-2-2V64c0-1.104,0.896-2,2-2s2,0.896,2,2v20h20c1.104,0,2,0.896,2,2S37.104,88,36,88z"/></g><g><path d="M86,88H64c-1.104,0-2-0.896-2-2s0.896-2,2-2h20V64c0-1.104,0.896-2,2-2s2,0.896,2,2v22C88,87.104,87.104,88,86,88z"/></g><g><path d="M86,38c-1.104,0-2-0.896-2-2V16H64c-1.104,0-2-0.896-2-2s0.896-2,2-2h22c1.104,0,2,0.896,2,2v22    C88,37.104,87.104,38,86,38z"/></g></g>
    <g><path d="M36,38c-0.512,0-1.024-0.195-1.414-0.586l-22-22c-0.781-0.781-0.781-2.047,0-2.828c0.78-0.781,2.048-0.781,2.828,0l22,22   c0.781,0.781,0.781,2.047,0,2.828C37.024,37.805,36.512,38,36,38z"/></g>
    <g><path d="M86,88c-0.512,0-1.023-0.195-1.414-0.586l-22-22c-0.781-0.781-0.781-2.047,0-2.828s2.047-0.781,2.828,0l22,22   c0.781,0.781,0.781,2.047,0,2.828C87.023,87.805,86.512,88,86,88z"/></g>
    <g><path d="M64,38c-0.512,0-1.023-0.195-1.414-0.586c-0.781-0.781-0.781-2.047,0-2.828l22-22c0.781-0.781,2.047-0.781,2.828,0   c0.781,0.781,0.781,2.047,0,2.828l-22,22C65.023,37.805,64.512,38,64,38z"/></g>
    <g><path d="M14,88c-0.512,0-1.024-0.195-1.414-0.586c-0.781-0.781-0.781-2.047,0-2.828l22-22c0.78-0.781,2.048-0.781,2.828,0   c0.781,0.781,0.781,2.047,0,2.828l-22,22C15.024,87.805,14.512,88,14,88z"/></g>
   </svg>