<svg xmlns="http://www.w3.org/2000/svg" xmlns:xlink="http://www.w3.org/1999/xlink" version="1.1" x="0px" y="0px"
     viewBox="0 0 128 128" stroke="#F3F4F9" fill="#F3F4F9" enable-background="new 0 0 128 128" xml:space="preserve"><path d="M20,128h88c2.8,0,5-2.2,5-5V5c0-2.8-2.2-5-5-5H20c-2.8,0-5,2.2-5,5v118C15,125.8,17.2,128,20,128z M37,117h-6v-6h6V117z   M37,107h-6v-6h6V107z M37,97h-6v-6h6V97z M37,87h-6v-6h6V87z M47,117h-6v-6h6V117z M47,107h-6v-6h6V107z M47,97h-6v-6h6V97z M47,87  h-6v-6h6V87z M57,117h-6v-6h6V117z M57,107h-6v-6h6V107z M57,97h-6v-6h6V97z M57,87h-6v-6h6V87z M67,117h-6v-6h6V117z M67,107h-6v-6  h6V107z M67,97h-6v-6h6V97z M67,87h-6v-6h6V87z M77,117h-6v-6h6V117z M77,107h-6v-6h6V107z M77,97h-6v-6h6V97z M77,87h-6v-6h6V87z   M87,117h-6v-6h6V117z M87,107h-6v-6h6V107z M87,97h-6v-6h6V97z M87,87h-6v-6h6V87z M97,117h-6v-6h6V117z M97,107h-6v-6h6V107z   M97,97h-6v-6h6V97z M97,87h-6v-6h6V87z M107,117h-6v-6h6V117z M107,107h-6v-6h6V107z M107,97h-6v-6h6V97z M107,87h-6v-6h6V87z   M80.6,5.6c0.7-0.7,2.1-0.7,2.8,0C83.8,6,84,6.5,84,7c0,0.5-0.2,1-0.6,1.4C83.1,8.8,82.6,9,82,9c-0.5,0-1-0.2-1.4-0.6  C80.3,8,80,7.5,80,7C80,6.5,80.3,6,80.6,5.6z M52,5h24c1.1,0,2,0.9,2,2s-0.9,2-2,2H52c-1.1,0-2-0.9-2-2S50.9,5,52,5z M22,14h84v56  H22V14z M21,81h6v6h-6V81z M21,91h6v6h-6V91z M21,101h6v6h-6V101z M21,111h6v6h-6V111z"/>
    </svg>