<svg xmlns:dc="http://purl.org/dc/elements/1.1/" xmlns:cc="http://creativecommons.org/ns#"
     xmlns:rdf="http://www.w3.org/1999/02/22-rdf-syntax-ns#" xmlns:svg="http://www.w3.org/2000/svg"
     xmlns="http://www.w3.org/2000/svg" xmlns:sodipodi="http://sodipodi.sourceforge.net/DTD/sodipodi-0.dtd"
     xmlns:inkscape="http://www.inkscape.org/namespaces/inkscape" version="1.1"
     viewBox="0 0 16.933332 16.933332" x="0px" y="0px">
    <path d="m 2.11666,1.5875123 c -0.29771,0 -0.52917,0.23147 -0.52917,0.52917 v 2.11667 h 13.75833 v -2.11667 c 0,-0.2977 -0.23138,-0.52917 -0.52917,-0.52917 z m 1.05833,0.52917 c 0.43511,0 0.79375,0.35907 0.79375,0.79427 0,0.4351 -0.35864,0.79375 -0.79375,0.79375 -0.43521,0 -0.79375,-0.35865 -0.79375,-0.79375 0,-0.4352 0.35854,-0.79427 0.79375,-0.79427 z m 0,0.52917 c -0.15121,0 -0.26458,0.1139 -0.26458,0.2651 0,0.1511 0.11337,0.26406 0.26458,0.26406 0.15121,0 0.26458,-0.11296 0.26458,-0.26406 0,-0.1512 -0.11337,-0.2651 -0.26458,-0.2651 z m 1.5875,0 h 1.05833 a 0.26460979,0.26460977 0 1 1 0,0.52916 H 4.76249 a 0.26460979,0.26460977 0 1 1 0,-0.52916 z m 2.11667,0 h 1.05833 a 0.26460979,0.26460977 0 1 1 0,0.52916 H 6.87916 a 0.26460979,0.26460977 0 1 1 0,-0.52916 z m -5.29167,2.11666 V 14.817202 c 0,0.2978 0.23146,0.52865 0.52917,0.52865 h 12.69999 c 0.29779,0 0.52917,-0.23085 0.52917,-0.52865 V 4.7625123 Z m 1.72032,1.6428 H 7.40832 V 13.813122 H 3.30781 Z m 5.84459,1.85208 h 3.96822 c 0.36031,-0.008 0.36031,0.53664 0,0.52865 H 9.1524 c -0.36031,0.008 -0.36031,-0.53664 0,-0.52865 z m 0,1.58698 h 3.96822 c 0.35288,0 0.35288,0.5296897 0,0.5296897 H 9.1524 c -0.35287,0 -0.35287,-0.5296897 0,-0.5296897 z m 0,1.5880197 h 3.96822 c 0.36031,-0.008 0.36031,0.53664 0,0.52865 H 9.1524 c -0.36031,0.008 -0.36031,-0.53664 0,-0.52865 z"
          style="color:#000000;font-style:normal;font-variant:normal;font-weight:normal;font-stretch:normal;font-size:medium;line-height:normal;font-family:sans-serif;font-variant-ligatures:normal;font-variant-position:normal;font-variant-caps:normal;font-variant-numeric:normal;font-variant-alternates:normal;font-feature-settings:normal;text-indent:0;text-align:start;text-decoration:none;text-decoration-line:none;text-decoration-style:solid;text-decoration-color:#000000;letter-spacing:normal;word-spacing:normal;text-transform:none;writing-mode:lr-tb;direction:ltr;text-orientation:mixed;dominant-baseline:auto;baseline-shift:baseline;text-anchor:start;white-space:normal;shape-padding:0;clip-rule:nonzero;display:inline;overflow:visible;visibility:visible;opacity:1;isolation:auto;mix-blend-mode:normal;color-interpolation:sRGB;color-interpolation-filters:linearRGB;solid-color:#000000;solid-opacity:1;vector-effect:none;fill:#000000;fill-opacity:1;fill-rule:evenodd;stroke:none;stroke-width:4.23333979;stroke-linecap:round;stroke-linejoin:round;stroke-miterlimit:4;stroke-dasharray:none;stroke-dashoffset:0;stroke-opacity:1;paint-order:fill markers stroke;color-rendering:auto;image-rendering:auto;shape-rendering:auto;text-rendering:auto;enable-background:accumulate"/>

</svg>