<svg xmlns="http://www.w3.org/2000/svg" xmlns:xlink="http://www.w3.org/1999/xlink" version="1.1" x="0px" y="0px"
     viewBox="0 0 128 128" stroke="#F3F4F9" fill="#F3F4F9" enable-background="new 0 0 128 128" xml:space="preserve"><path d="M29,128h70c2.8,0,5-2.2,5-5V5c0-2.8-2.2-5-5-5H29c-2.8,0-5,2.2-5,5v118C24,125.8,26.2,128,29,128z M74,120c0,1.7-1.3,3-3,3  H57c-1.7,0-3-1.3-3-3v-2c0-1.7,1.3-3,3-3h14c1.7,0,3,1.3,3,3V120z M77.5,4.6c0.8-0.7,2.1-0.7,2.8,0C80.7,5,80.9,5.5,80.9,6  c0,0.5-0.2,1-0.6,1.4C80,7.8,79.5,8,78.9,8c-0.5,0-1-0.2-1.4-0.6C77.1,7,76.9,6.5,76.9,6C76.9,5.5,77.1,5,77.5,4.6z M55,4h18  c1.1,0,2,0.9,2,2s-0.9,2-2,2H55c-1.1,0-2-0.9-2-2S53.9,4,55,4z M28,12h72v98H28V12z"/>
    </svg>