<svg xmlns="http://www.w3.org/2000/svg" xmlns:xlink="http://www.w3.org/1999/xlink" version="1.1" x="0px" y="0px"
     viewBox="0 0 128 128" stroke="#F3F4F9" fill="#F3F4F9" enable-background="new 0 0 128 128" xml:space="preserve"><path d="M12,128h104c2.8,0,5-2.2,5-5V5c0-2.8-2.2-5-5-5H12C9.2,0,7,2.2,7,5v118C7,125.8,9.2,128,12,128z M73,121c0,1.7-1.3,3-3,3H58  c-1.7,0-3-1.3-3-3v-4c0-1.7,1.3-3,3-3h12c1.7,0,3,1.3,3,3V121z M53,4h22c1.1,0,2,0.9,2,2s-0.9,2-2,2H53c-1.1,0-2-0.9-2-2  S51.9,4,53,4z M11,12h106v97H11V12z"/>
   </svg>