<svg width="100%" height="100%" viewBox="0 0 10 10" version="1.1" xmlns="http://www.w3.org/2000/svg" xmlns:xlink="http://www.w3.org/1999/xlink" xml:space="preserve" xmlns:serif="http://www.serif.com/" style="fill-rule:evenodd;clip-rule:evenodd;stroke-linejoin:round;stroke-miterlimit:2;">
    <g transform="matrix(1,0,0,1,0.11328,0.418902)">
        <g transform="matrix(0.023858,0,0,0.023858,-7.11186,-4.05593)">
            <path d="M661.8,407L661.8,390.8L614.5,390.8L614.5,312.2L596.9,312.2L596.9,407L661.8,407Z" style="fill:rgb(0,162,154);fill-rule:nonzero;"/>
        </g>
        <g transform="matrix(0.023858,0,0,0.023858,-7.11186,-4.05593)">
            <path d="M519.3,416C492.8,416 476.7,401 476,400.3C472.4,396.9 472.3,391.2 475.7,387.6C479.1,384 484.7,383.9 488.3,387.3C488.9,387.8 500.3,398.1 519.3,398.1C528.9,398.1 533.3,396 538.9,393.3C545.4,390.2 552.8,386.6 567.1,386C572.1,385.8 576.2,389.7 576.4,394.6C576.6,399.5 572.7,403.7 567.8,403.9C557.3,404.3 552.4,406.7 546.7,409.4C540.4,412.5 533.1,416 519.3,416" style="fill:rgb(0,162,154);fill-rule:nonzero;"/>
        </g>
        <g transform="matrix(0.023858,0,0,0.023858,-7.11186,-4.05593)">
            <path d="M372.9,390L429.8,390L401.4,339.5L372.9,390ZM458.8,407L344,407L401.4,305.1L458.8,407Z" style="fill:rgb(0,162,154);fill-rule:nonzero;"/>
        </g>
    </g>
</svg>